<svg width="404" height="353" viewBox="0 0 404 353" fill="none" xmlns="http://www.w3.org/2000/svg">
<path d="M360.843 54H38.9023C36.7471 54 35 55.7471 35 57.9023V303.098C35 305.253 36.7471 307 38.9023 307H360.843C362.998 307 364.746 305.253 364.746 303.098V57.9023C364.746 55.7471 362.998 54 360.843 54Z" fill="#F2F6FB"/>
<path d="M293.736 189.931H313.482C316.382 189.931 317.433 190.232 318.493 190.799C319.553 191.366 320.385 192.198 320.951 193.258C321.518 194.318 321.82 195.369 321.82 198.268V307H285.398V198.268C285.398 195.369 285.7 194.318 286.267 193.258C286.834 192.198 287.666 191.366 288.726 190.799C289.786 190.232 290.837 189.931 293.736 189.931Z" fill="#D8DEED"/>
<path d="M252.111 217.897H272.508C275.407 217.897 276.459 218.199 277.519 218.766C278.578 219.333 279.41 220.165 279.977 221.224C280.544 222.284 280.846 223.336 280.846 226.235V307H243.774V226.235C243.774 223.336 244.076 222.284 244.642 221.224C245.209 220.165 246.041 219.333 247.101 218.766C248.161 218.199 249.212 217.897 252.111 217.897Z" fill="#D8DEED"/>
<path d="M211.137 130.746H230.884C233.783 130.746 234.834 131.047 235.894 131.614C236.954 132.181 237.786 133.013 238.352 134.073C238.919 135.133 239.221 136.184 239.221 139.083V307H202.799V139.083C202.799 136.184 203.101 135.133 203.668 134.073C204.235 133.013 205.067 132.181 206.127 131.614C207.187 131.047 208.238 130.746 211.137 130.746Z" fill="#E1E5F0"/>
<path d="M169.512 153.509H189.259C192.158 153.509 193.209 153.811 194.269 154.378C195.329 154.945 196.161 155.776 196.728 156.836C197.295 157.896 197.596 158.947 197.596 161.847V307H161.175V161.847C161.175 158.947 161.477 157.896 162.044 156.836C162.61 155.776 163.442 154.945 164.502 154.378C165.562 153.811 166.613 153.509 169.512 153.509Z" fill="#D8DEED"/>
<path d="M128.538 206.841H148.285C151.184 206.841 152.235 207.142 153.295 207.709C154.355 208.276 155.187 209.108 155.753 210.168C156.32 211.228 156.622 212.279 156.622 215.178V307H120.201V215.178C120.201 212.279 120.502 211.228 121.069 210.168C121.636 209.108 122.468 208.276 123.528 207.709C124.588 207.142 125.639 206.841 128.538 206.841Z" fill="#D8DEED"/>
<path d="M86.9134 180.175H106.66C109.559 180.175 110.61 180.477 111.67 181.044C112.73 181.61 113.562 182.442 114.129 183.502C114.696 184.562 114.997 185.613 114.997 188.512V307H78.5758V188.512C78.5758 185.613 78.8777 184.562 79.4445 183.502C80.0114 182.442 80.8432 181.61 81.9031 181.044C82.963 180.477 84.0143 180.175 86.9134 180.175Z" fill="#D8DEED"/>
<path d="M35 67.0106C35 59.825 40.8282 54 48.0026 54H351.743C358.924 54 364.746 59.8256 364.746 67.0106V82.617H35V67.0106Z" fill="#E1E5F0"/>
<path d="M54.1864 74.8123C57.5988 74.8123 60.365 72.0461 60.365 68.6337C60.365 65.2213 57.5988 62.455 54.1864 62.455C50.774 62.455 48.0077 65.2213 48.0077 68.6337C48.0077 72.0461 50.774 74.8123 54.1864 74.8123Z" fill="#FF5645"/>
<path d="M74.3483 74.8123C77.7607 74.8123 80.527 72.0461 80.527 68.6337C80.527 65.2213 77.7607 62.455 74.3483 62.455C70.9359 62.455 68.1697 65.2213 68.1697 68.6337C68.1697 72.0461 70.9359 74.8123 74.3483 74.8123Z" fill="#FFCB3D"/>
<path d="M95.1607 74.8123C98.573 74.8123 101.339 72.0461 101.339 68.6337C101.339 65.2213 98.573 62.455 95.1607 62.455C91.7483 62.455 88.982 65.2213 88.982 68.6337C88.982 72.0461 91.7483 74.8123 95.1607 74.8123Z" fill="#3ABF7C"/>
<g filter="url(#filter0_d)">
<rect x="161" y="8" width="227" height="91" rx="12" fill="white"/>
</g>
<path d="M182.336 33L180.488 29.736H179.696V33H178.016V24.624H181.16C181.808 24.624 182.36 24.74 182.816 24.972C183.272 25.196 183.612 25.504 183.836 25.896C184.068 26.28 184.184 26.712 184.184 27.192C184.184 27.744 184.024 28.244 183.704 28.692C183.384 29.132 182.908 29.436 182.276 29.604L184.28 33H182.336ZM179.696 28.476H181.1C181.556 28.476 181.896 28.368 182.12 28.152C182.344 27.928 182.456 27.62 182.456 27.228C182.456 26.844 182.344 26.548 182.12 26.34C181.896 26.124 181.556 26.016 181.1 26.016H179.696V28.476ZM185.271 29.652C185.271 28.98 185.403 28.384 185.667 27.864C185.939 27.344 186.303 26.944 186.759 26.664C187.223 26.384 187.739 26.244 188.307 26.244C188.803 26.244 189.235 26.344 189.603 26.544C189.979 26.744 190.279 26.996 190.503 27.3V26.352H192.195V33H190.503V32.028C190.287 32.34 189.987 32.6 189.603 32.808C189.227 33.008 188.791 33.108 188.295 33.108C187.735 33.108 187.223 32.964 186.759 32.676C186.303 32.388 185.939 31.984 185.667 31.464C185.403 30.936 185.271 30.332 185.271 29.652ZM190.503 29.676C190.503 29.268 190.423 28.92 190.263 28.632C190.103 28.336 189.887 28.112 189.615 27.96C189.343 27.8 189.051 27.72 188.739 27.72C188.427 27.72 188.139 27.796 187.875 27.948C187.611 28.1 187.395 28.324 187.227 28.62C187.067 28.908 186.987 29.252 186.987 29.652C186.987 30.052 187.067 30.404 187.227 30.708C187.395 31.004 187.611 31.232 187.875 31.392C188.147 31.552 188.435 31.632 188.739 31.632C189.051 31.632 189.343 31.556 189.615 31.404C189.887 31.244 190.103 31.02 190.263 30.732C190.423 30.436 190.503 30.084 190.503 29.676ZM195.792 27.732V30.948C195.792 31.172 195.844 31.336 195.948 31.44C196.06 31.536 196.244 31.584 196.5 31.584H197.28V33H196.224C194.808 33 194.1 32.312 194.1 30.936V27.732H193.308V26.352H194.1V24.708H195.792V26.352H197.28V27.732H195.792ZM199.34 25.56C199.044 25.56 198.796 25.468 198.596 25.284C198.404 25.092 198.308 24.856 198.308 24.576C198.308 24.296 198.404 24.064 198.596 23.88C198.796 23.688 199.044 23.592 199.34 23.592C199.636 23.592 199.88 23.688 200.072 23.88C200.272 24.064 200.372 24.296 200.372 24.576C200.372 24.856 200.272 25.092 200.072 25.284C199.88 25.468 199.636 25.56 199.34 25.56ZM200.168 26.352V33H198.488V26.352H200.168ZM205.512 26.256C206.304 26.256 206.944 26.508 207.432 27.012C207.92 27.508 208.164 28.204 208.164 29.1V33H206.484V29.328C206.484 28.8 206.352 28.396 206.088 28.116C205.824 27.828 205.464 27.684 205.008 27.684C204.544 27.684 204.176 27.828 203.904 28.116C203.64 28.396 203.508 28.8 203.508 29.328V33H201.828V26.352H203.508V27.18C203.732 26.892 204.016 26.668 204.36 26.508C204.712 26.34 205.096 26.256 205.512 26.256ZM212.366 26.244C212.862 26.244 213.298 26.344 213.674 26.544C214.05 26.736 214.346 26.988 214.562 27.3V26.352H216.254V33.048C216.254 33.664 216.13 34.212 215.882 34.692C215.634 35.18 215.262 35.564 214.766 35.844C214.27 36.132 213.67 36.276 212.966 36.276C212.022 36.276 211.246 36.056 210.638 35.616C210.038 35.176 209.698 34.576 209.618 33.816H211.286C211.374 34.12 211.562 34.36 211.85 34.536C212.146 34.72 212.502 34.812 212.918 34.812C213.406 34.812 213.802 34.664 214.106 34.368C214.41 34.08 214.562 33.64 214.562 33.048V32.016C214.346 32.328 214.046 32.588 213.662 32.796C213.286 33.004 212.854 33.108 212.366 33.108C211.806 33.108 211.294 32.964 210.83 32.676C210.366 32.388 209.998 31.984 209.726 31.464C209.462 30.936 209.33 30.332 209.33 29.652C209.33 28.98 209.462 28.384 209.726 27.864C209.998 27.344 210.362 26.944 210.818 26.664C211.282 26.384 211.798 26.244 212.366 26.244ZM214.562 29.676C214.562 29.268 214.482 28.92 214.322 28.632C214.162 28.336 213.946 28.112 213.674 27.96C213.402 27.8 213.11 27.72 212.798 27.72C212.486 27.72 212.198 27.796 211.934 27.948C211.67 28.1 211.454 28.324 211.286 28.62C211.126 28.908 211.046 29.252 211.046 29.652C211.046 30.052 211.126 30.404 211.286 30.708C211.454 31.004 211.67 31.232 211.934 31.392C212.206 31.552 212.494 31.632 212.798 31.632C213.11 31.632 213.402 31.556 213.674 31.404C213.946 31.244 214.162 31.02 214.322 30.732C214.482 30.436 214.562 30.084 214.562 29.676ZM227.198 33L226.286 32.1C225.51 32.796 224.562 33.144 223.442 33.144C222.826 33.144 222.282 33.04 221.81 32.832C221.346 32.616 220.986 32.316 220.73 31.932C220.474 31.54 220.346 31.088 220.346 30.576C220.346 30.024 220.502 29.528 220.814 29.088C221.126 28.648 221.586 28.292 222.194 28.02C221.978 27.756 221.822 27.504 221.726 27.264C221.63 27.016 221.582 26.752 221.582 26.472C221.582 26.088 221.682 25.744 221.882 25.44C222.082 25.128 222.366 24.884 222.734 24.708C223.11 24.532 223.546 24.444 224.042 24.444C224.546 24.444 224.978 24.54 225.338 24.732C225.698 24.924 225.966 25.18 226.142 25.5C226.318 25.82 226.394 26.176 226.37 26.568H224.738C224.746 26.304 224.682 26.104 224.546 25.968C224.41 25.824 224.226 25.752 223.994 25.752C223.77 25.752 223.582 25.82 223.43 25.956C223.286 26.084 223.214 26.252 223.214 26.46C223.214 26.66 223.274 26.86 223.394 27.06C223.514 27.252 223.71 27.492 223.982 27.78L226.094 29.868C226.11 29.852 226.122 29.836 226.13 29.82C226.138 29.804 226.146 29.788 226.154 29.772L226.838 28.632H228.59L227.75 30.108C227.59 30.42 227.418 30.716 227.234 30.996L229.262 33H227.198ZM223.49 31.752C224.146 31.752 224.726 31.52 225.23 31.056L223.166 29.016C222.39 29.36 222.002 29.848 222.002 30.48C222.002 30.84 222.138 31.144 222.41 31.392C222.682 31.632 223.042 31.752 223.49 31.752ZM237.273 33L235.425 29.736H234.633V33H232.953V24.624H236.097C236.745 24.624 237.297 24.74 237.753 24.972C238.209 25.196 238.549 25.504 238.773 25.896C239.005 26.28 239.121 26.712 239.121 27.192C239.121 27.744 238.961 28.244 238.641 28.692C238.321 29.132 237.845 29.436 237.213 29.604L239.217 33H237.273ZM234.633 28.476H236.037C236.493 28.476 236.833 28.368 237.057 28.152C237.281 27.928 237.393 27.62 237.393 27.228C237.393 26.844 237.281 26.548 237.057 26.34C236.833 26.124 236.493 26.016 236.037 26.016H234.633V28.476ZM246.821 29.532C246.821 29.772 246.805 29.988 246.773 30.18H241.913C241.953 30.66 242.121 31.036 242.417 31.308C242.713 31.58 243.077 31.716 243.509 31.716C244.133 31.716 244.577 31.448 244.841 30.912H246.653C246.461 31.552 246.093 32.08 245.549 32.496C245.005 32.904 244.337 33.108 243.545 33.108C242.905 33.108 242.329 32.968 241.817 32.688C241.313 32.4 240.917 31.996 240.629 31.476C240.349 30.956 240.208 30.356 240.208 29.676C240.208 28.988 240.349 28.384 240.629 27.864C240.909 27.344 241.301 26.944 241.805 26.664C242.309 26.384 242.889 26.244 243.545 26.244C244.177 26.244 244.741 26.38 245.237 26.652C245.741 26.924 246.129 27.312 246.401 27.816C246.681 28.312 246.821 28.884 246.821 29.532ZM245.081 29.052C245.073 28.62 244.917 28.276 244.613 28.02C244.309 27.756 243.937 27.624 243.497 27.624C243.081 27.624 242.729 27.752 242.441 28.008C242.161 28.256 241.989 28.604 241.925 29.052H245.081ZM250.819 31.452L252.499 26.352H254.287L251.827 33H249.787L247.339 26.352H249.139L250.819 31.452ZM256.082 25.56C255.786 25.56 255.538 25.468 255.338 25.284C255.146 25.092 255.05 24.856 255.05 24.576C255.05 24.296 255.146 24.064 255.338 23.88C255.538 23.688 255.786 23.592 256.082 23.592C256.378 23.592 256.622 23.688 256.814 23.88C257.014 24.064 257.114 24.296 257.114 24.576C257.114 24.856 257.014 25.092 256.814 25.284C256.622 25.468 256.378 25.56 256.082 25.56ZM256.91 26.352V33H255.23V26.352H256.91ZM264.75 29.532C264.75 29.772 264.734 29.988 264.702 30.18H259.842C259.882 30.66 260.05 31.036 260.346 31.308C260.642 31.58 261.006 31.716 261.438 31.716C262.062 31.716 262.506 31.448 262.77 30.912H264.582C264.39 31.552 264.022 32.08 263.478 32.496C262.934 32.904 262.266 33.108 261.474 33.108C260.834 33.108 260.258 32.968 259.746 32.688C259.242 32.4 258.846 31.996 258.558 31.476C258.278 30.956 258.138 30.356 258.138 29.676C258.138 28.988 258.278 28.384 258.558 27.864C258.838 27.344 259.23 26.944 259.734 26.664C260.238 26.384 260.818 26.244 261.474 26.244C262.106 26.244 262.67 26.38 263.166 26.652C263.67 26.924 264.058 27.312 264.33 27.816C264.61 28.312 264.75 28.884 264.75 29.532ZM263.01 29.052C263.002 28.62 262.846 28.276 262.542 28.02C262.238 27.756 261.866 27.624 261.426 27.624C261.01 27.624 260.658 27.752 260.37 28.008C260.09 28.256 259.918 28.604 259.854 29.052H263.01ZM275.192 26.352L273.248 33H271.436L270.224 28.356L269.012 33H267.188L265.232 26.352H266.936L268.112 31.416L269.384 26.352H271.16L272.408 31.404L273.584 26.352H275.192ZM278.645 33.108C278.101 33.108 277.613 33.012 277.181 32.82C276.749 32.62 276.405 32.352 276.149 32.016C275.901 31.68 275.765 31.308 275.741 30.9H277.433C277.465 31.156 277.589 31.368 277.805 31.536C278.029 31.704 278.305 31.788 278.633 31.788C278.953 31.788 279.201 31.724 279.377 31.596C279.561 31.468 279.653 31.304 279.653 31.104C279.653 30.888 279.541 30.728 279.317 30.624C279.101 30.512 278.753 30.392 278.273 30.264C277.777 30.144 277.369 30.02 277.049 29.892C276.737 29.764 276.465 29.568 276.233 29.304C276.009 29.04 275.897 28.684 275.897 28.236C275.897 27.868 276.001 27.532 276.209 27.228C276.425 26.924 276.729 26.684 277.121 26.508C277.521 26.332 277.989 26.244 278.525 26.244C279.317 26.244 279.949 26.444 280.421 26.844C280.893 27.236 281.153 27.768 281.201 28.44H279.593C279.569 28.176 279.457 27.968 279.257 27.816C279.065 27.656 278.805 27.576 278.477 27.576C278.173 27.576 277.937 27.632 277.769 27.744C277.609 27.856 277.529 28.012 277.529 28.212C277.529 28.436 277.641 28.608 277.865 28.728C278.089 28.84 278.437 28.956 278.909 29.076C279.389 29.196 279.785 29.32 280.097 29.448C280.409 29.576 280.677 29.776 280.901 30.048C281.133 30.312 281.253 30.664 281.261 31.104C281.261 31.488 281.153 31.832 280.937 32.136C280.729 32.44 280.425 32.68 280.025 32.856C279.633 33.024 279.173 33.108 278.645 33.108Z" fill="black"/>
<path d="M181.768 82.108C181.144 82.108 180.58 81.968 180.076 81.688C179.572 81.4 179.176 81 178.888 80.488C178.6 79.968 178.456 79.368 178.456 78.688C178.456 78.016 178.604 77.42 178.9 76.9C179.196 76.38 179.6 75.98 180.112 75.7C180.624 75.42 181.196 75.28 181.828 75.28C182.46 75.28 183.032 75.42 183.544 75.7C184.056 75.98 184.46 76.38 184.756 76.9C185.052 77.42 185.2 78.016 185.2 78.688C185.2 79.36 185.048 79.956 184.744 80.476C184.44 80.996 184.024 81.4 183.496 81.688C182.976 81.968 182.4 82.108 181.768 82.108ZM181.768 80.92C182.12 80.92 182.448 80.836 182.752 80.668C183.064 80.5 183.316 80.248 183.508 79.912C183.7 79.576 183.796 79.168 183.796 78.688C183.796 78.208 183.704 77.804 183.52 77.476C183.336 77.14 183.092 76.888 182.788 76.72C182.484 76.552 182.156 76.468 181.804 76.468C181.452 76.468 181.124 76.552 180.82 76.72C180.524 76.888 180.288 77.14 180.112 77.476C179.936 77.804 179.848 78.208 179.848 78.688C179.848 79.4 180.028 79.952 180.388 80.344C180.756 80.728 181.216 80.92 181.768 80.92ZM192.54 75.388V82H191.172V81.22C190.956 81.492 190.672 81.708 190.32 81.868C189.976 82.02 189.608 82.096 189.216 82.096C188.696 82.096 188.228 81.988 187.812 81.772C187.404 81.556 187.08 81.236 186.84 80.812C186.608 80.388 186.492 79.876 186.492 79.276V75.388H187.848V79.072C187.848 79.664 187.996 80.12 188.292 80.44C188.588 80.752 188.992 80.908 189.504 80.908C190.016 80.908 190.42 80.752 190.716 80.44C191.02 80.12 191.172 79.664 191.172 79.072V75.388H192.54ZM195.941 76.504V80.164C195.941 80.412 195.997 80.592 196.109 80.704C196.229 80.808 196.429 80.86 196.709 80.86H197.549V82H196.469C195.853 82 195.381 81.856 195.053 81.568C194.725 81.28 194.561 80.812 194.561 80.164V76.504H193.781V75.388H194.561V73.744H195.941V75.388H197.549V76.504H195.941ZM204.795 82.108C204.171 82.108 203.607 81.968 203.103 81.688C202.599 81.4 202.203 81 201.915 80.488C201.627 79.968 201.483 79.368 201.483 78.688C201.483 78.016 201.631 77.42 201.927 76.9C202.223 76.38 202.627 75.98 203.139 75.7C203.651 75.42 204.223 75.28 204.855 75.28C205.487 75.28 206.059 75.42 206.571 75.7C207.083 75.98 207.487 76.38 207.783 76.9C208.079 77.42 208.227 78.016 208.227 78.688C208.227 79.36 208.075 79.956 207.771 80.476C207.467 80.996 207.051 81.4 206.523 81.688C206.003 81.968 205.427 82.108 204.795 82.108ZM204.795 80.92C205.147 80.92 205.475 80.836 205.779 80.668C206.091 80.5 206.343 80.248 206.535 79.912C206.727 79.576 206.823 79.168 206.823 78.688C206.823 78.208 206.731 77.804 206.547 77.476C206.363 77.14 206.119 76.888 205.815 76.72C205.511 76.552 205.183 76.468 204.831 76.468C204.479 76.468 204.151 76.552 203.847 76.72C203.551 76.888 203.315 77.14 203.139 77.476C202.963 77.804 202.875 78.208 202.875 78.688C202.875 79.4 203.055 79.952 203.415 80.344C203.783 80.728 204.243 80.92 204.795 80.92ZM212.352 76.504H211.128V82H209.748V76.504H208.968V75.388H209.748V74.92C209.748 74.16 209.948 73.608 210.348 73.264C210.756 72.912 211.392 72.736 212.256 72.736V73.876C211.84 73.876 211.548 73.956 211.38 74.116C211.212 74.268 211.128 74.536 211.128 74.92V75.388H212.352V76.504ZM222.141 74.428H218.121V76.816C218.289 76.592 218.537 76.404 218.865 76.252C219.201 76.1 219.557 76.024 219.933 76.024C220.605 76.024 221.149 76.168 221.565 76.456C221.989 76.744 222.289 77.108 222.465 77.548C222.649 77.988 222.741 78.452 222.741 78.94C222.741 79.532 222.625 80.06 222.393 80.524C222.169 80.98 221.829 81.34 221.373 81.604C220.925 81.868 220.373 82 219.717 82C218.845 82 218.145 81.784 217.617 81.352C217.089 80.92 216.773 80.348 216.669 79.636H218.001C218.089 80.012 218.285 80.312 218.589 80.536C218.893 80.752 219.273 80.86 219.729 80.86C220.297 80.86 220.721 80.688 221.001 80.344C221.289 80 221.433 79.544 221.433 78.976C221.433 78.4 221.289 77.96 221.001 77.656C220.713 77.344 220.289 77.188 219.729 77.188C219.337 77.188 219.005 77.288 218.733 77.488C218.469 77.68 218.277 77.944 218.157 78.28H216.861V73.228H222.141V74.428Z" fill="black" fill-opacity="0.4"/>
<path d="M180.427 64.024V60.944L189.583 47.84H194.147V60.608H196.611V64.024H194.147V68H190.227V64.024H180.427ZM190.479 52.04L184.739 60.608H190.479V52.04ZM201.291 68.196C200.582 68.196 199.994 67.9813 199.527 67.552C199.079 67.104 198.855 66.5533 198.855 65.9C198.855 65.2467 199.079 64.7053 199.527 64.276C199.994 63.828 200.582 63.604 201.291 63.604C201.982 63.604 202.551 63.828 202.999 64.276C203.447 64.7053 203.671 65.2467 203.671 65.9C203.671 66.5533 203.447 67.104 202.999 67.552C202.551 67.9813 201.982 68.196 201.291 68.196ZM209.796 57.192C207.93 56.2213 206.996 54.7187 206.996 52.684C206.996 51.676 207.248 50.7613 207.752 49.94C208.275 49.1 209.05 48.4373 210.076 47.952C211.122 47.448 212.391 47.196 213.884 47.196C215.378 47.196 216.638 47.448 217.664 47.952C218.71 48.4373 219.484 49.1 219.988 49.94C220.511 50.7613 220.772 51.676 220.772 52.684C220.772 53.7107 220.52 54.616 220.016 55.4C219.512 56.1653 218.84 56.7627 218 57.192C219.027 57.64 219.83 58.2933 220.408 59.152C220.987 60.0107 221.276 61.028 221.276 62.204C221.276 63.4733 220.95 64.584 220.296 65.536C219.662 66.4693 218.784 67.188 217.664 67.692C216.544 68.196 215.284 68.448 213.884 68.448C212.484 68.448 211.224 68.196 210.104 67.692C209.003 67.188 208.126 66.4693 207.472 65.536C206.838 64.584 206.52 63.4733 206.52 62.204C206.52 61.028 206.81 60.0107 207.388 59.152C207.967 58.2747 208.77 57.6213 209.796 57.192ZM216.964 53.244C216.964 52.3293 216.684 51.62 216.124 51.116C215.583 50.612 214.836 50.36 213.884 50.36C212.951 50.36 212.204 50.612 211.644 51.116C211.103 51.62 210.832 52.3387 210.832 53.272C210.832 54.112 211.112 54.784 211.672 55.288C212.251 55.792 212.988 56.044 213.884 56.044C214.78 56.044 215.518 55.792 216.096 55.288C216.675 54.7653 216.964 54.084 216.964 53.244ZM213.884 58.9C212.82 58.9 211.952 59.1707 211.28 59.712C210.627 60.2533 210.3 61.028 210.3 62.036C210.3 62.9693 210.618 63.7347 211.252 64.332C211.906 64.9107 212.783 65.2 213.884 65.2C214.986 65.2 215.854 64.9013 216.488 64.304C217.123 63.7067 217.44 62.9507 217.44 62.036C217.44 61.0467 217.114 60.2813 216.46 59.74C215.807 59.18 214.948 58.9 213.884 58.9Z" fill="black"/>
<rect x="336" y="23" width="30" height="10" rx="3" fill="#1564C0"/>
<rect x="264" y="47" width="102" height="5" rx="2.5" fill="black" fill-opacity="0.7"/>
<rect x="264" y="57" width="102" height="5" rx="2.5" fill="url(#paint0_linear)"/>
<rect x="264" y="67" width="102" height="5" rx="2.5" fill="url(#paint1_linear)"/>
<rect x="264" y="77" width="102" height="5" rx="2.5" fill="url(#paint2_linear)"/>
<g filter="url(#filter1_d)">
<rect x="8" y="120" width="170" height="50" rx="12" fill="white"/>
</g>
<g filter="url(#filter2_d)">
<path d="M34 135L37.09 141.26L44 142.27L39 147.14L40.18 154.02L34 150.77L27.82 154.02L29 147.14L24 142.27L30.91 141.26L34 135Z" fill="#FFAA00" stroke="#FFAA00" stroke-width="2" stroke-linecap="round" stroke-linejoin="round"/>
</g>
<g filter="url(#filter3_d)">
<path d="M73 135L76.09 141.26L83 142.27L78 147.14L79.18 154.02L73 150.77L66.82 154.02L68 147.14L63 142.27L69.91 141.26L73 135Z" fill="#FFAA00" stroke="#FFAA00" stroke-width="2" stroke-linecap="round" stroke-linejoin="round"/>
</g>
<g filter="url(#filter4_d)">
<path d="M112 135L115.09 141.26L122 142.27L117 147.14L118.18 154.02L112 150.77L105.82 154.02L107 147.14L102 142.27L108.91 141.26L112 135Z" fill="#FFAA00" stroke="#FFAA00" stroke-width="2" stroke-linecap="round" stroke-linejoin="round"/>
</g>
<g filter="url(#filter5_d)">
<path d="M151 135L154.09 141.26L161 142.27L156 147.14L157.18 154.02L151 150.77L144.82 154.02L146 147.14L141 142.27L147.91 141.26L151 135Z" fill="#FFAA00" stroke="#FFAA00" stroke-width="2" stroke-linecap="round" stroke-linejoin="round"/>
</g>
<g filter="url(#filter6_d)">
<rect x="119" y="276" width="203" height="61" rx="12" fill="white"/>
</g>
<rect x="131" y="287" width="50" height="35" rx="10" fill="#1564C0"/>
<rect x="198" y="291" width="102" height="5" rx="2.5" fill="black" fill-opacity="0.4"/>
<rect x="198" y="300" width="79" height="5" rx="2.5" fill="black" fill-opacity="0.4"/>
<defs>
<filter id="filter0_d" x="153" y="0" width="251" height="115" filterUnits="userSpaceOnUse" color-interpolation-filters="sRGB">
<feFlood flood-opacity="0" result="BackgroundImageFix"/>
<feColorMatrix in="SourceAlpha" type="matrix" values="0 0 0 0 0 0 0 0 0 0 0 0 0 0 0 0 0 0 127 0"/>
<feMorphology radius="2" operator="dilate" in="SourceAlpha" result="effect1_dropShadow"/>
<feOffset dx="4" dy="4"/>
<feGaussianBlur stdDeviation="5"/>
<feColorMatrix type="matrix" values="0 0 0 0 0 0 0 0 0 0 0 0 0 0 0 0 0 0 0.25 0"/>
<feBlend mode="normal" in2="BackgroundImageFix" result="effect1_dropShadow"/>
<feBlend mode="normal" in="SourceGraphic" in2="effect1_dropShadow" result="shape"/>
</filter>
<filter id="filter1_d" x="0" y="112" width="194" height="74" filterUnits="userSpaceOnUse" color-interpolation-filters="sRGB">
<feFlood flood-opacity="0" result="BackgroundImageFix"/>
<feColorMatrix in="SourceAlpha" type="matrix" values="0 0 0 0 0 0 0 0 0 0 0 0 0 0 0 0 0 0 127 0"/>
<feMorphology radius="2" operator="dilate" in="SourceAlpha" result="effect1_dropShadow"/>
<feOffset dx="4" dy="4"/>
<feGaussianBlur stdDeviation="5"/>
<feColorMatrix type="matrix" values="0 0 0 0 0 0 0 0 0 0 0 0 0 0 0 0 0 0 0.25 0"/>
<feBlend mode="normal" in2="BackgroundImageFix" result="effect1_dropShadow"/>
<feBlend mode="normal" in="SourceGraphic" in2="effect1_dropShadow" result="shape"/>
</filter>
<filter id="filter2_d" x="18" y="129" width="34" height="34" filterUnits="userSpaceOnUse" color-interpolation-filters="sRGB">
<feFlood flood-opacity="0" result="BackgroundImageFix"/>
<feColorMatrix in="SourceAlpha" type="matrix" values="0 0 0 0 0 0 0 0 0 0 0 0 0 0 0 0 0 0 127 0"/>
<feOffset dx="1" dy="1"/>
<feGaussianBlur stdDeviation="2.5"/>
<feColorMatrix type="matrix" values="0 0 0 0 1 0 0 0 0 0.666667 0 0 0 0 0 0 0 0 0.5 0"/>
<feBlend mode="normal" in2="BackgroundImageFix" result="effect1_dropShadow"/>
<feBlend mode="normal" in="SourceGraphic" in2="effect1_dropShadow" result="shape"/>
</filter>
<filter id="filter3_d" x="57" y="129" width="34" height="34" filterUnits="userSpaceOnUse" color-interpolation-filters="sRGB">
<feFlood flood-opacity="0" result="BackgroundImageFix"/>
<feColorMatrix in="SourceAlpha" type="matrix" values="0 0 0 0 0 0 0 0 0 0 0 0 0 0 0 0 0 0 127 0"/>
<feOffset dx="1" dy="1"/>
<feGaussianBlur stdDeviation="2.5"/>
<feColorMatrix type="matrix" values="0 0 0 0 1 0 0 0 0 0.666667 0 0 0 0 0 0 0 0 0.5 0"/>
<feBlend mode="normal" in2="BackgroundImageFix" result="effect1_dropShadow"/>
<feBlend mode="normal" in="SourceGraphic" in2="effect1_dropShadow" result="shape"/>
</filter>
<filter id="filter4_d" x="96" y="129" width="34" height="34" filterUnits="userSpaceOnUse" color-interpolation-filters="sRGB">
<feFlood flood-opacity="0" result="BackgroundImageFix"/>
<feColorMatrix in="SourceAlpha" type="matrix" values="0 0 0 0 0 0 0 0 0 0 0 0 0 0 0 0 0 0 127 0"/>
<feOffset dx="1" dy="1"/>
<feGaussianBlur stdDeviation="2.5"/>
<feColorMatrix type="matrix" values="0 0 0 0 1 0 0 0 0 0.666667 0 0 0 0 0 0 0 0 0.5 0"/>
<feBlend mode="normal" in2="BackgroundImageFix" result="effect1_dropShadow"/>
<feBlend mode="normal" in="SourceGraphic" in2="effect1_dropShadow" result="shape"/>
</filter>
<filter id="filter5_d" x="135" y="129" width="34" height="34" filterUnits="userSpaceOnUse" color-interpolation-filters="sRGB">
<feFlood flood-opacity="0" result="BackgroundImageFix"/>
<feColorMatrix in="SourceAlpha" type="matrix" values="0 0 0 0 0 0 0 0 0 0 0 0 0 0 0 0 0 0 127 0"/>
<feOffset dx="1" dy="1"/>
<feGaussianBlur stdDeviation="2.5"/>
<feColorMatrix type="matrix" values="0 0 0 0 1 0 0 0 0 0.666667 0 0 0 0 0 0 0 0 0.5 0"/>
<feBlend mode="normal" in2="BackgroundImageFix" result="effect1_dropShadow"/>
<feBlend mode="normal" in="SourceGraphic" in2="effect1_dropShadow" result="shape"/>
</filter>
<filter id="filter6_d" x="111" y="268" width="227" height="85" filterUnits="userSpaceOnUse" color-interpolation-filters="sRGB">
<feFlood flood-opacity="0" result="BackgroundImageFix"/>
<feColorMatrix in="SourceAlpha" type="matrix" values="0 0 0 0 0 0 0 0 0 0 0 0 0 0 0 0 0 0 127 0"/>
<feMorphology radius="2" operator="dilate" in="SourceAlpha" result="effect1_dropShadow"/>
<feOffset dx="4" dy="4"/>
<feGaussianBlur stdDeviation="5"/>
<feColorMatrix type="matrix" values="0 0 0 0 0 0 0 0 0 0 0 0 0 0 0 0 0 0 0.25 0"/>
<feBlend mode="normal" in2="BackgroundImageFix" result="effect1_dropShadow"/>
<feBlend mode="normal" in="SourceGraphic" in2="effect1_dropShadow" result="shape"/>
</filter>
<linearGradient id="paint0_linear" x1="264" y1="59.5" x2="366" y2="59.5" gradientUnits="userSpaceOnUse">
<stop offset="0.826042" stop-opacity="0.7"/>
<stop offset="0.826142" stop-opacity="0.2"/>
</linearGradient>
<linearGradient id="paint1_linear" x1="264" y1="69.5" x2="366" y2="69.5" gradientUnits="userSpaceOnUse">
<stop offset="0.492708" stop-opacity="0.7"/>
<stop offset="0.492808" stop-opacity="0.2"/>
</linearGradient>
<linearGradient id="paint2_linear" x1="264" y1="79.5" x2="366" y2="79.5" gradientUnits="userSpaceOnUse">
<stop offset="0.190625" stop-opacity="0.7"/>
<stop offset="0.19185" stop-opacity="0.2"/>
</linearGradient>
</defs>
</svg>
